<?xml version="1.0" encoding="UTF-8" standalone="no"?>
<svg
        xmlns:dc="http://purl.org/dc/elements/1.1/"
        xmlns:cc="http://creativecommons.org/ns#"
        xmlns:rdf="http://www.w3.org/1999/02/22-rdf-syntax-ns#"
        xmlns:sodipodi="http://sodipodi.sourceforge.net/DTD/sodipodi-0.dtd"
        xmlns:inkscape="http://www.inkscape.org/namespaces/inkscape"
        xmlns="http://www.w3.org/2000/svg"
        enable-background="new 0 0 512 512"
        height="60.192707mm"
        id="Layer_1"
        version="1.1"
        viewBox="0 0 227.6 227.5"
        width="60.219166mm"
        xml:space="preserve"
        sodipodi:docname="settings_icon.svg"
        inkscape:version="0.92.4 (5da689c313, 2019-01-14)"><metadata
     id="metadata3752"><rdf:RDF><cc:Work
         rdf:about=""><dc:format>image/svg+xml</dc:format><dc:type
        rdf:resource="http://purl.org/dc/dcmitype/StillImage"/><dc:title></dc:title></cc:Work></rdf:RDF></metadata>
    <defs
            id="defs3750"/>
    <sodipodi:namedview
            pagecolor="#ffffff"
            bordercolor="#666666"
            borderopacity="1"
            objecttolerance="10"
            gridtolerance="10"
            guidetolerance="10"
            inkscape:pageopacity="0"
            inkscape:pageshadow="2"
            inkscape:window-width="1920"
            inkscape:window-height="1027"
            id="namedview3748"
            showgrid="false"
            units="mm"
            width="218mm"
            fit-margin-top="0"
            fit-margin-left="0"
            fit-margin-right="0"
            fit-margin-bottom="0"
            inkscape:zoom="1.6757812"
            inkscape:cx="128.48835"
            inkscape:cy="153.08078"
            inkscape:window-x="-8"
            inkscape:window-y="-8"
            inkscape:window-maximized="1"
            inkscape:current-layer="Layer_1"/>
    <g
            id="g3745"
            transform="translate(-142.2,-142.2)"><circle
       cx="256"
       cy="256"
       r="57"
       stroke-miterlimit="10"
       id="circle3741"
       style="fill:none;stroke:#000000;stroke-width:10;stroke-linecap:round;stroke-linejoin:round;stroke-miterlimit:10" />
        <path
                d="m 364.8,233.5 h -24.3 c -4.3,-10.3 -4.6,-11.1 -8.8,-21.4 l 17.2,-17.2 -31.9,-31.8 -17.2,17.2 c -10.3,-4.3 -11.1,-4.6 -21.4,-8.8 v -24.3 h -45 v 24.3 c -10.3,4.3 -11.1,4.6 -21.4,8.8 l -17,-17.2 -31.9,31.9 17.2,17.2 c -4.3,10.3 -4.6,11.1 -8.8,21.4 h -24.3 v 45 h 24.3 c 4.3,10.3 4.6,11.1 8.8,21.4 l -17.2,17 31.8,31.8 17.2,-17.2 c 10.3,4.3 11.1,4.6 21.4,8.8 v 24.3 h 45 v -24.3 c 10.3,-4.3 11.1,-4.6 21.4,-8.8 l 17.2,17.2 31.8,-31.8 -17.2,-17.2 c 4.3,-10.3 4.6,-11.1 8.8,-21.4 h 24.3 z"
                stroke-miterlimit="10"
                id="path3743"
                inkscape:connector-curvature="0"
                style="fill:none;stroke:#000000;stroke-width:10;stroke-linecap:round;stroke-linejoin:round;stroke-miterlimit:10"/></g></svg>